<?xml version="1.0" encoding="utf-8"?>
<!-- Generator: Adobe Illustrator 19.0.0, SVG Export Plug-In . SVG Version: 6.00 Build 0)  -->
<svg version="1.1" id="icons" xmlns="http://www.w3.org/2000/svg" xmlns:xlink="http://www.w3.org/1999/xlink" x="0px" y="0px"
	 viewBox="0 0 64 64" style="enable-background:new 0 0 64 64;" xml:space="preserve">
<style type="text/css">
	.st0{display:none;}
	.st1{display:inline;fill:#36D7B7;}
	.st2{display:inline;fill:none;stroke:#414042;stroke-miterlimit:10;}
	.st3{display:inline;fill:#F5AB35;}
	.st4{display:inline;fill:#F7BC5D;}
	.st5{display:inline;}
	.st6{fill:#414042;}
	.st7{fill:#36D7B7;}
	.st8{display:inline;opacity:0.2;fill:#414042;}
	.st9{display:inline;fill:#F1F2F2;}
	.st10{display:inline;fill:none;stroke:#414042;stroke-linecap:round;stroke-miterlimit:10;}
	.st11{display:inline;fill:#414042;}
	.st12{display:inline;fill:#E6E7E8;}
	.st13{display:inline;fill:#FAD79E;}
	.st14{display:inline;fill:#D1D3D4;}
	.st15{display:inline;fill:#FFFFFF;}
	.st16{fill:none;stroke:#414042;stroke-miterlimit:10;}
	.st17{fill:#FFFFFF;}
	.st18{fill:#F5AB35;}
	.st19{fill:#F9CD86;}
	.st20{fill:#29A189;}
	.st21{fill:#F7BC5D;}
	.st22{display:inline;fill:#29A189;}
	.st23{fill:#E6E7E8;}
	.st24{fill:#D1D3D4;}
	.st25{fill:#F1F2F2;}
	.st26{fill:#5EDFC5;}
	.st27{display:inline;fill:none;stroke:#414042;stroke-miterlimit:10;stroke-dasharray:1;}
	.st28{fill:none;stroke:#36D7B7;stroke-miterlimit:10;}
	.st29{fill:#808285;}
	.st30{fill:#EDA633;}
	.st31{display:inline;fill:#BCBEC0;}
	.st32{display:inline;fill:none;stroke:#F5AB35;stroke-miterlimit:10;}
	.st33{display:inline;fill:none;stroke:#36D7B7;stroke-miterlimit:10;}
	.st34{fill:none;stroke:#414042;stroke-linecap:round;stroke-miterlimit:10;}
	.st35{display:inline;fill:#5EDFC5;}
	.st36{fill:#BCBEC0;}
	.st37{display:inline;fill:#EDEDED;}
	.st38{fill:none;stroke:#FFFFFF;stroke-miterlimit:10;}
	.st39{display:inline;fill:none;stroke:#FFFFFF;stroke-miterlimit:10;}
	.st40{display:inline;fill:#939598;}
	.st41{display:inline;fill:#A7A9AC;}
	.st42{display:inline;fill:#86E7D4;}
</style>
<g id="XMLID_60_" class="st0">
	<path id="XMLID_52_" class="st1" d="M46.7,28.3c0-5-4-9-9-9c-2.5,0-4.8,1-6.4,2.7c-1.6-1.7-3.9-2.7-6.4-2.7c-5,0-9,4-9,9
		c0,2.4,1,4.6,2.5,6.3l12.9,12.8l13.2-13.1c0.1-0.2,0.5-0.6,0.5-0.6C46.1,32.1,46.7,30.3,46.7,28.3z"/>
	<path id="XMLID_59_" class="st2" d="M37.7,19.3c-2.5,0-4.8,1-6.4,2.7c-1.6-1.7-3.9-2.7-6.4-2.7c-5,0-9,4-9,9c0,2.4,1,4.6,2.5,6.3"
		/>
	<circle id="XMLID_47_" class="st3" cx="39.6" cy="39.3" r="8.1"/>
	<circle id="XMLID_13_" class="st2" cx="39.6" cy="39.3" r="8.1"/>
	<circle id="XMLID_51_" class="st4" cx="39.6" cy="39.3" r="5.6"/>
	<g id="XMLID_48_" class="st5">
		<g id="XMLID_218_">
			<path id="XMLID_219_" class="st6" d="M38.9,41.9V40H37v-1.3h1.8v-1.9h1.5v1.9h1.8V40h-1.8v1.9H38.9z"/>
		</g>
	</g>
	<path id="XMLID_54_" class="st2" d="M23,44c0,0.6-1.3,0.6-1.3,1.3c0,0.6,1.3,0.6,1.3,1.3c0,0.6-1.3,0.6-1.3,1.3
		c0,0.6,1.3,0.6,1.3,1.3"/>
	<path id="XMLID_56_" class="st2" d="M43.5,12.9c0,0.6-1.3,0.6-1.3,1.3c0,0.6,1.3,0.6,1.3,1.3c0,0.6-1.3,0.6-1.3,1.3
		c0,0.6,1.3,0.6,1.3,1.3"/>
	<circle id="XMLID_53_" class="st2" cx="18.2" cy="38.4" r="1"/>
	<circle id="XMLID_55_" class="st2" cx="28.8" cy="51.8" r="1.3"/>
	<circle id="XMLID_58_" class="st2" cx="47.2" cy="20.6" r="1"/>
	<circle id="XMLID_57_" class="st2" cx="35.8" cy="12.2" r="1.3"/>
</g>
<g id="XMLID_62_" class="st0">
	<line id="XMLID_72_" class="st2" x1="33.4" y1="20.7" x2="39.9" y2="18.7"/>
	<line id="XMLID_71_" class="st2" x1="32.5" y1="20.7" x2="37" y2="15.6"/>
	<line id="XMLID_70_" class="st2" x1="32.3" y1="20.7" x2="25.8" y2="18.7"/>
	<line id="XMLID_69_" class="st2" x1="33.2" y1="20.7" x2="28.6" y2="15.6"/>
	<line id="XMLID_82_" class="st2" x1="50.3" y1="32.6" x2="43.8" y2="30.5"/>
	<line id="XMLID_81_" class="st2" x1="43.8" y1="31.3" x2="50.3" y2="29.3"/>
	<g id="XMLID_75_" class="st5">
		<path id="XMLID_80_" class="st7" d="M32.5,20.1C32.5,20.1,32.4,20.1,32.5,20.1c-0.1,0-0.1,0-0.1,0H32.5z"/>
		<path id="XMLID_76_" class="st7" d="M32.4,20.1c7.8,0,14.1,6.3,14.1,14.1c0,7.8-6.3,14.1-14.1,14.1c-2.1,0-10,0-14,0V34.2
			C18.4,26.5,24.7,20.2,32.4,20.1z"/>
	</g>
	<path id="XMLID_83_" class="st2" d="M46.5,34.2c0,7.8-6.3,14.1-14.1,14.1c-2.9,0-16.4,0-16.4,0"/>
	<path id="XMLID_61_" class="st2" d="M18.4,48.4"/>
	<path id="XMLID_68_" class="st8" d="M37.9,31.4c1.1,6.6-3.3,12.9-9.9,14c-6.6,1.1-12.9-3.3-14-9.9L37.9,31.4z"/>
	<path id="XMLID_67_" class="st9" d="M37.9,31.4c0,6.7-5.4,12.1-12.1,12.1c-6.7,0-12.1-5.4-12.1-12.1H37.9z"/>
	<path id="XMLID_66_" class="st10" d="M37.9,31.4c0,6.7-5.4,12.1-12.1,12.1c-6.7,0-12.1-5.4-12.1-12.1H37.9z"/>
	<line id="XMLID_65_" class="st2" x1="37.4" y1="35" x2="21.5" y2="35"/>
	<line id="XMLID_64_" class="st2" x1="36" y1="38.1" x2="26.7" y2="38.1"/>
	<circle id="XMLID_63_" class="st11" cx="41" cy="28.4" r="1.1"/>
</g>
<g id="XMLID_106_" class="st0">
	<rect id="XMLID_89_" x="19.1" y="24.9" class="st12" width="5.5" height="1.7"/>
	<circle id="XMLID_86_" class="st13" cx="34.4" cy="35.8" r="3"/>
	<path id="XMLID_74_" class="st12" d="M41.6,29.6H27.5l1.2-5.9c0.3-1.3,1.4-2.3,2.8-2.3h6.3c1.3,0,2.5,0.9,2.7,2.2L41.6,29.6z"/>
	<polygon id="XMLID_98_" class="st14" points="27.5,29.6 41.6,29.6 40.7,24.8 28.4,24.8 	"/>
	<rect id="XMLID_73_" x="16" y="25.8" class="st9" width="32.4" height="20.8"/>
	<circle id="XMLID_78_" class="st3" cx="34.4" cy="35.8" r="8.8"/>
	<circle id="XMLID_77_" class="st2" cx="34.4" cy="35.8" r="8.8"/>
	<circle id="XMLID_79_" class="st2" cx="34.4" cy="35.8" r="7.4"/>
	<circle id="XMLID_87_" class="st4" cx="34.4" cy="35.8" r="3"/>
	<circle id="XMLID_85_" class="st2" cx="34.4" cy="35.8" r="3"/>
	<rect id="XMLID_88_" x="31" y="22.8" class="st4" width="7.1" height="1.6"/>
	<rect id="XMLID_90_" x="19.3" y="28.7" class="st1" width="5.5" height="2.3"/>
	<polyline id="XMLID_91_" class="st2" points="16.3,25.8 16.3,46.4 48.4,46.4 	"/>
	<line id="XMLID_94_" class="st2" x1="34.5" y1="17.4" x2="34.5" y2="20.1"/>
	<line id="XMLID_93_" class="st2" x1="37.6" y1="18.2" x2="36.3" y2="20.5"/>
	<line id="XMLID_95_" class="st2" x1="39.9" y1="20.5" x2="37.6" y2="21.8"/>
	<line id="XMLID_107_" class="st2" x1="29" y1="20.8" x2="31.4" y2="22"/>
	<line id="XMLID_108_" class="st2" x1="31.1" y1="18.4" x2="32.6" y2="20.7"/>
	
		<ellipse id="XMLID_92_" transform="matrix(0.7167 0.6974 -0.6974 0.7167 33.6993 -13.645)" class="st15" cx="33.6" cy="34.7" rx="0.7" ry="0.9"/>
	<line id="XMLID_96_" class="st2" x1="10.7" y1="19.5" x2="22" y2="19.5"/>
	<line id="XMLID_100_" class="st2" x1="42" y1="19.7" x2="53.3" y2="19.7"/>
	<line id="XMLID_101_" class="st2" x1="42.9" y1="21.9" x2="45.9" y2="21.9"/>
	<line id="XMLID_102_" class="st2" x1="52.5" y1="21.9" x2="47.1" y2="21.9"/>
	<line id="XMLID_97_" class="st2" x1="13.4" y1="21.8" x2="24.7" y2="21.8"/>
	<line id="XMLID_84_" class="st2" x1="27" y1="19.5" x2="22.9" y2="19.5"/>
</g>
<g id="XMLID_129_">
	<path id="XMLID_805_" class="st7" d="M14.9,23v15.8h2v2.7v2.6c0,0.3,0.3,0.4,0.5,0.2l6.6-5.4H44V23H14.9z"/>
	<path id="XMLID_113_" class="st16" d="M14.9,38.8h2v2.7v2.6c0,0.3,0.3,0.4,0.5,0.2l6.6-5.4H44"/>
	<g id="XMLID_407_">
		<path id="XMLID_414_" class="st17" d="M35.3,34.2L47,22.6l-1.7-1.7L33.6,32.5l-0.7,2.3c0,0,0,0.1,0.1,0.1L35.3,34.2z"/>
		
			<rect id="XMLID_413_" x="32.7" y="25.9" transform="matrix(-0.7071 0.7071 -0.7071 -0.7071 88.628 17.5947)" class="st18" width="15.8" height="2.4"/>
		
			<rect id="XMLID_412_" x="32.3" y="26.1" transform="matrix(-0.7071 0.7071 -0.7071 -0.7071 87.596 17.1675)" class="st19" width="15.8" height="1.2"/>
		
			<rect id="XMLID_411_" x="46.1" y="19.2" transform="matrix(-0.7071 0.7071 -0.7071 -0.7071 95.0847 2.0103)" class="st17" width="2" height="3"/>
		<path id="XMLID_410_" class="st16" d="M36.4,33.6L49.1,21l-2.2-2.2L34.2,31.4l-1.3,3.4c0,0.1,0,0.1,0.1,0.1L36.4,33.6z"/>
		<line id="XMLID_409_" class="st16" x1="45.2" y1="20.5" x2="47.4" y2="22.7"/>
		<line id="XMLID_408_" class="st16" x1="34.3" y1="32" x2="35.8" y2="33.5"/>
	</g>
	<line id="XMLID_110_" class="st16" x1="20.6" y1="26.9" x2="36.7" y2="26.9"/>
	<line id="XMLID_109_" class="st16" x1="20.6" y1="30.9" x2="32.6" y2="30.9"/>
	<line id="XMLID_111_" class="st16" x1="20.6" y1="34.9" x2="31.4" y2="34.9"/>
	<g id="XMLID_166_">
		<line id="XMLID_168_" class="st16" x1="29" y1="40.8" x2="31.4" y2="43.2"/>
		<line id="XMLID_167_" class="st16" x1="29" y1="43.2" x2="31.4" y2="40.8"/>
	</g>
	<g id="XMLID_120_">
		<line id="XMLID_122_" class="st16" x1="28.3" y1="18.5" x2="30.6" y2="20.9"/>
		<line id="XMLID_121_" class="st16" x1="28.3" y1="20.9" x2="30.6" y2="18.5"/>
	</g>
	<g id="XMLID_123_">
		<line id="XMLID_125_" class="st16" x1="19.1" y1="14.2" x2="22" y2="17"/>
		<line id="XMLID_124_" class="st16" x1="19.1" y1="17" x2="22" y2="14.2"/>
	</g>
	<g id="XMLID_126_">
		<line id="XMLID_128_" class="st16" x1="35.8" y1="11.3" x2="38.7" y2="14.2"/>
		<line id="XMLID_127_" class="st16" x1="35.8" y1="14.2" x2="38.7" y2="11.3"/>
	</g>
	<g id="XMLID_112_">
		<line id="XMLID_115_" class="st16" x1="38.6" y1="45" x2="41.7" y2="48.1"/>
		<line id="XMLID_114_" class="st16" x1="38.6" y1="48.1" x2="41.7" y2="45"/>
	</g>
	<g id="XMLID_116_">
		<line id="XMLID_118_" class="st16" x1="25" y1="49" x2="28.7" y2="52.7"/>
		<line id="XMLID_117_" class="st16" x1="25" y1="52.7" x2="28.7" y2="49"/>
	</g>
</g>
<g id="XMLID_139_" class="st0">
	<g id="XMLID_596_" class="st5">
		<path id="XMLID_636_" class="st17" d="M44.6,48.3H26.1c-0.6,0-1-0.4-1-1V16.5c0-0.6,0.4-1,1-1h18.5c0.6,0,1,0.4,1,1v30.8
			C45.6,47.9,45.1,48.3,44.6,48.3z"/>
		<path id="XMLID_131_" class="st16" d="M25.6,21.8v-5.4c0-0.5,0.4-1,1-1h17.7c0.5,0,1,0.4,1,1v15.9"/>
		<line id="XMLID_637_" class="st16" x1="32.7" y1="17.7" x2="37.9" y2="17.7"/>
		<rect id="XMLID_638_" x="26.6" y="19.6" class="st7" width="17.3" height="24.9"/>
		<polygon id="XMLID_287_" class="st20" points="43.2,19.6 43.2,43.6 26.6,43.6 26.6,44.4 44,44.4 44,19.6 		"/>
	</g>
	<g id="XMLID_130_" class="st5">
		<polygon id="XMLID_135_" class="st19" points="23.1,33.2 23.1,48.3 35.2,40.7 		"/>
		<polygon id="XMLID_136_" class="st18" points="23.1,48.3 23.1,48.5 47.5,48.5 35.2,40.7 		"/>
		<polygon id="XMLID_137_" class="st19" points="47.2,33.2 35.2,40.7 47.5,48.5 47.5,33.2 		"/>
		<polygon id="XMLID_134_" class="st21" points="47.2,33.2 23.1,33.2 35.2,43.7 		"/>
	</g>
	<line id="XMLID_133_" class="st2" x1="16.5" y1="23.9" x2="34.7" y2="23.9"/>
	<line id="XMLID_132_" class="st2" x1="22.3" y1="27.6" x2="34.7" y2="27.6"/>
	<line id="XMLID_138_" class="st2" x1="24.6" y1="31.2" x2="34.7" y2="31.2"/>
</g>
<g id="XMLID_155_" class="st0">
	<line id="XMLID_146_" class="st2" x1="31.9" y1="38.9" x2="31.9" y2="48.1"/>
	<circle id="XMLID_140_" class="st12" cx="31.9" cy="31.4" r="11.5"/>
	<path id="XMLID_152_" class="st2" d="M28.3,18.8c1.1-0.5,2.3-0.7,3.6-0.7c1.3,0,2.5,0.3,3.6,0.7"/>
	<path id="XMLID_149_" class="st2" d="M27.6,16.9c1.3-0.6,2.8-0.9,4.4-0.9s3,0.3,4.4,0.9"/>
	<path id="XMLID_150_" class="st2" d="M26.7,14.9c1.6-0.7,3.4-1.1,5.2-1.1c1.9,0,3.6,0.4,5.2,1.1"/>
	<path id="XMLID_154_" class="st2" d="M44.5,27.8c0.5,1.1,0.7,2.3,0.7,3.6c0,1.3-0.3,2.5-0.7,3.6"/>
	<path id="XMLID_153_" class="st2" d="M46.4,27c0.6,1.3,0.9,2.8,0.9,4.4c0,1.5-0.3,3-0.9,4.4"/>
	<path id="XMLID_151_" class="st2" d="M48.3,26.1c0.7,1.6,1.1,3.4,1.1,5.2c0,1.9-0.4,3.6-1.1,5.2"/>
	<path id="XMLID_160_" class="st2" d="M19.3,35c-0.5-1.1-0.7-2.3-0.7-3.6c0-1.3,0.3-2.5,0.7-3.6"/>
	<path id="XMLID_159_" class="st2" d="M17.4,35.7c-0.6-1.3-0.9-2.8-0.9-4.4c0-1.5,0.3-3,0.9-4.4"/>
	<path id="XMLID_158_" class="st2" d="M15.5,36.6c-0.7-1.6-1.1-3.4-1.1-5.2c0-1.9,0.4-3.6,1.1-5.2"/>
	<circle id="XMLID_141_" class="st1" cx="31.9" cy="31.4" r="6.8"/>
	<circle id="XMLID_143_" class="st22" cx="31.9" cy="31.4" r="4"/>
	
		<ellipse id="XMLID_144_" transform="matrix(0.5997 -0.8002 0.8002 0.5997 -11.7711 36.315)" class="st15" cx="30.4" cy="29.9" rx="1.6" ry="1"/>
	<circle id="XMLID_142_" class="st2" cx="31.9" cy="31.4" r="6.8"/>
	<line id="XMLID_147_" class="st2" x1="18.3" y1="48.1" x2="45.4" y2="48.1"/>
	<line id="XMLID_145_" class="st2" x1="13.3" y1="50.1" x2="33.1" y2="50.1"/>
	<line id="XMLID_148_" class="st2" x1="50.7" y1="50.1" x2="34.8" y2="50.1"/>
</g>
<g id="XMLID_175_" class="st0">
	<path id="XMLID_1355_" class="st1" d="M46.4,52V50c0-7.9-6.5-14.4-14.4-14.4l0,0c-7.9,0-14.4,6.5-14.4,14.4V52H46.4z"/>
	<line id="XMLID_1368_" class="st2" x1="25.1" y1="46.8" x2="25.1" y2="52"/>
	<line id="XMLID_1367_" class="st2" x1="39.7" y1="46.8" x2="39.7" y2="52"/>
	<path id="XMLID_193_" class="st15" d="M21.9,30.6h-0.5c-0.7,0-1.2-0.5-1.2-1.2v-1.9c0-0.7,0.5-1.2,1.2-1.2h0.5V30.6z"/>
	<path id="XMLID_192_" class="st15" d="M41.3,30.6h0.5c0.7,0,1.2-0.5,1.2-1.2v-1.9c0-0.7-0.5-1.2-1.2-1.2h-0.5V30.6z"/>
	<path id="XMLID_191_" class="st10" d="M21.9,30.6h-0.5c-0.7,0-1.2-0.5-1.2-1.2v-1.9c0-0.7,0.5-1.2,1.2-1.2h0.5V30.6z"/>
	<path id="XMLID_190_" class="st10" d="M41.3,30.6h0.5c0.7,0,1.2-0.5,1.2-1.2v-1.9c0-0.7-0.5-1.2-1.2-1.2h-0.5V30.6z"/>
	<path id="XMLID_189_" class="st15" d="M21.9,22.6v8.2c0,5.3,4.3,9.7,9.7,9.7l0,0c5.3,0,9.7-4.3,9.7-9.7V23
		c-1.1-6.8-7.3-8.8-10.3-8.7C28.2,14.4,22.9,17.3,21.9,22.6z"/>
	<path id="XMLID_188_" class="st3" d="M41.3,25.5c0,0-4.9-5.8-13-6.7l-6.3,6.9c0,0-1.6-10,9.3-11.4C31.2,14.3,41.4,14,41.3,25.5z"/>
	<path id="XMLID_187_" class="st2" d="M21.9,25.7c0,0,4-2.3,6.3-6.9c0,0,9.8,1.7,13,6.7"/>
	<path id="XMLID_186_" class="st2" d="M41.3,24c0-5.3-4.3-9.7-9.7-9.7l0,0c-5.3,0-9.7,4.3-9.7,9.7v6.7c0,5.3,4.3,9.7,9.7,9.7l0,0
		c5.3,0,9.7-4.3,9.7-9.7V24z"/>
	<path id="XMLID_185_" class="st3" d="M40.8,12c0,0-6.8,6.8-12.9,3.8c0,0-1.5,5.8,6.8,5.2C34.6,21.1,43.1,20.8,40.8,12z"/>
	<path id="XMLID_184_" class="st10" d="M27.9,17.8c0.3,1.6,1.8,3.6,6.8,3.3c0,0,8.5-0.2,6.1-9c0,0-2.5,2.4-5.7,3.8"/>
</g>
<g id="XMLID_176_" class="st0">
	<path id="XMLID_170_" class="st3" d="M46.4,52.4v-1.9c0-7.9-6.5-14.4-14.4-14.4l0,0c-7.9,0-14.4,6.5-14.4,14.4v1.9H46.4z"/>
	<line id="XMLID_169_" class="st2" x1="25.1" y1="47.2" x2="25.1" y2="52.4"/>
	<line id="XMLID_165_" class="st2" x1="39.7" y1="47.2" x2="39.7" y2="52.4"/>
	<path id="XMLID_164_" class="st15" d="M23.8,29.8h-0.5c-0.6,0-1.1-0.5-1.1-1.1v-1.8c0-0.6,0.5-1.1,1.1-1.1h0.5V29.8z"/>
	<path id="XMLID_163_" class="st10" d="M23.8,29.8h-0.5c-0.6,0-1.1-0.5-1.1-1.1v-1.8c0-0.6,0.5-1.1,1.1-1.1h0.5V29.8z"/>
	<path id="XMLID_162_" class="st15" d="M23.8,20.4v9.5c0,5,4.1,9.1,9.1,9.1l0,0c5,0,9.1-4.1,9.1-9.1v-9.5l-10.3-4.1L23.8,20.4z"/>
	<path id="XMLID_161_" class="st10" d="M23.8,20.4v9.5c0,5,4.1,9.1,9.1,9.1l0,0c5,0,9.1-4.1,9.1-9.1v-9.5l-10.3-4.1L23.8,20.4z"/>
	<path id="XMLID_157_" class="st1" d="M43.7,22.3c0-5.9-4.8-10.6-10.6-10.6c-5.9,0-10.6,4.8-10.6,10.6v2.8l8.9-6.4L41,32V44l2.7,5.5
		V35.2V22.3z"/>
	<path id="XMLID_156_" class="st2" d="M33.1,11.6c-5.9,0-10.6,4.8-10.6,10.6v2.8l8.9-6.4L41,32v12.5l2.3,4.2
		c0.3,0.5,0.5,0.4,0.5-0.1V35.2v-13C43.7,16.4,38.9,11.6,33.1,11.6z"/>
	<circle id="XMLID_171_" class="st11" cx="32.9" cy="51.4" r="0.5"/>
	<circle id="XMLID_172_" class="st11" cx="32.9" cy="48.5" r="0.5"/>
	<circle id="XMLID_173_" class="st11" cx="32.9" cy="45.5" r="0.5"/>
	<circle id="XMLID_174_" class="st11" cx="32.9" cy="42.6" r="0.5"/>
</g>
<g id="XMLID_1_" class="st0">
	<g id="XMLID_177_" class="st5">
		<path id="XMLID_200_" class="st23" d="M42.3,49.6v-1.8c0-7.4-6.1-13.5-13.5-13.5l0,0c-7.4,0-13.5,6.1-13.5,13.5v1.8H42.3z"/>
		<path id="XMLID_181_" class="st16" d="M29,34.3L29,34.3c-7.2,0-13.1,5.9-13.1,13.1v1.8h20.7"/>
		<path id="XMLID_183_" class="st17" d="M19.4,22.1v7.7c0,5,4.1,9.1,9.1,9.1l0,0c5,0,9.1-4.1,9.1-9.1v-7.2c-1.1-6.3-6.8-8.2-9.6-8.1
			C25.3,14.5,20.3,17.1,19.4,22.1z"/>
		<path id="XMLID_182_" class="st24" d="M37.5,24.8c0,0-5.4,1.2-12.2-2.8c0,0-3.6,3.1-5.9,3c0,0-1.5-9.3,8.7-10.7
			C28.1,14.4,37.7,14.1,37.5,24.8z"/>
		<path id="XMLID_178_" class="st16" d="M19.4,22.1v7.7c0,5,4.1,9.1,9.1,9.1l0,0c5,0,9.1-4.1,9.1-9.1v-7.2c-1.1-6.3-6.8-8.2-9.6-8.1
			C25.3,14.5,20.3,17.1,19.4,22.1z"/>
	</g>
	<circle id="XMLID_217_" class="st3" cx="41.6" cy="42.3" r="7"/>
	<circle id="XMLID_216_" class="st2" cx="41.6" cy="42.3" r="7"/>
	<circle id="XMLID_215_" class="st4" cx="41.6" cy="42.3" r="4.8"/>
	<g id="XMLID_208_" class="st5">
		<g id="XMLID_231_">
			<path id="XMLID_232_" class="st6" d="M41,44.5v-1.6h-1.6v-1.1H41v-1.6h1.3v1.6h1.6v1.1h-1.6v1.6H41z"/>
		</g>
	</g>
</g>
<g id="XMLID_225_" class="st0">
	<g id="XMLID_867_" class="st5">
		<path id="XMLID_876_" class="st17" d="M47.3,38.3h-0.8c1,0,1.9-0.9,1.9-1.9c0-1-0.9-1.9-1.9-1.9h-7.2h-4.6c0,0,1.6-3.9,1.6-5.8
			c0-0.9,0.2-2.6-0.3-3.4c-0.2-0.3-1.7-0.3-1.9,0c0,0-1.4,4.5-2.4,5.8c-0.5,0.7-2.6,3.4-2.6,3.4h-3.2l-1.7,12.2h4.1
			c0.4,0,0.8,0.2,1.1,0.5l1.9,1.9c0.3,0.3,0.8,0.5,1.3,0.5h10.8c1,0,1.9-0.9,1.9-1.9c0-1-0.9-1.9-1.9-1.9h2c1,0,1.9-0.9,1.9-1.9
			c0-1-0.9-1.9-1.9-1.9h2c1,0,1.9-0.9,1.9-1.9C49.2,39.1,48.3,38.3,47.3,38.3z"/>
		<path id="XMLID_879_" class="st25" d="M34.8,32.9h0.6c0.4-1.3,1-3.1,1-4.2c0-0.5,0.1-1.3,0-2.1c0,0.2,0,0.4,0,0.5
			C36.3,29,34.8,32.9,34.8,32.9z"/>
		<path id="XMLID_882_" class="st23" d="M43.3,48.1H32.5c-0.5,0-1-0.2-1.3-0.5l-1.9-1.9c-0.3-0.3-0.7-0.5-1.1-0.5h-3.9l-0.2,1.6h4.1
			c0.4,0,0.8,0.2,1.1,0.5l1.9,1.9c0.3,0.3,0.8,0.5,1.3,0.5h10.8c1,0,1.9-0.9,1.9-1.9c0-0.3-0.1-0.5-0.2-0.8
			C44.7,47.6,44.1,48.1,43.3,48.1z"/>
		<path id="XMLID_873_" class="st16" d="M43.9,42.1h3.2c1,0,1.9-0.9,1.9-1.9l0,0c0-1-0.9-1.9-1.9-1.9h-3.2"/>
		<path id="XMLID_872_" class="st16" d="M40.5,45.9h4.6c1,0,1.9-0.9,1.9-1.9l0,0c0-1-0.9-1.9-1.9-1.9h-4.6"/>
		<path id="XMLID_871_" class="st16" d="M41.3,45.9h1.8c1,0,1.9,0.9,1.9,1.9l0,0c0,1-0.9,1.9-1.9,1.9H32.3c-0.5,0-1-0.2-1.3-0.5
			l-1.9-1.9c-0.3-0.3-0.7-0.5-1.1-0.5h-4.1"/>
		<path id="XMLID_870_" class="st16" d="M40.5,38.3h5.8c1,0,1.9-0.9,1.9-1.9l0,0c0-1-0.9-1.9-1.9-1.9h-7.2h-4.6c0,0,1.6-3.9,1.6-5.8
			c0-0.9,0.2-2.6-0.3-3.4c-0.2-0.3-1.7-0.3-1.9,0c0,0-1.4,4.5-2.4,5.8c-0.5,0.7-2.6,3.4-2.6,3.4h-3.2"/>
		<rect id="XMLID_869_" x="14.6" y="32.4" class="st7" width="12.6" height="16.1"/>
		<rect id="XMLID_868_" x="14.6" y="32.4" class="st26" width="12.6" height="4.9"/>
	</g>
	<g id="XMLID_613_" class="st5">
		<line id="XMLID_615_" class="st16" x1="42" y1="28.4" x2="45.5" y2="28.4"/>
		<line id="XMLID_614_" class="st16" x1="43.8" y1="30.1" x2="43.8" y2="26.6"/>
	</g>
	<g id="XMLID_209_" class="st5">
		<line id="XMLID_211_" class="st16" x1="16.7" y1="29.5" x2="19.7" y2="29.5"/>
		<line id="XMLID_210_" class="st16" x1="18.2" y1="30.9" x2="18.2" y2="28"/>
	</g>
	<g id="XMLID_212_" class="st5">
		<line id="XMLID_221_" class="st16" x1="16" y1="17.3" x2="19" y2="17.3"/>
		<line id="XMLID_220_" class="st16" x1="17.5" y1="18.8" x2="17.5" y2="15.9"/>
	</g>
	<g id="XMLID_222_" class="st5">
		<line id="XMLID_224_" class="st16" x1="46.4" y1="15.8" x2="49.4" y2="15.8"/>
		<line id="XMLID_223_" class="st16" x1="47.9" y1="17.3" x2="47.9" y2="14.4"/>
	</g>
	<g id="XMLID_179_" class="st5">
		<line id="XMLID_194_" class="st16" x1="37.6" y1="21.5" x2="41.6" y2="21.5"/>
		<line id="XMLID_180_" class="st16" x1="39.6" y1="23.5" x2="39.6" y2="19.4"/>
	</g>
	<g id="XMLID_195_" class="st5">
		<line id="XMLID_197_" class="st16" x1="30" y1="18.4" x2="33" y2="18.4"/>
		<line id="XMLID_196_" class="st16" x1="31.5" y1="19.9" x2="31.5" y2="16.8"/>
	</g>
	<g id="XMLID_198_" class="st5">
		<line id="XMLID_201_" class="st16" x1="24.4" y1="25" x2="28.7" y2="25"/>
		<line id="XMLID_199_" class="st16" x1="26.5" y1="27.2" x2="26.5" y2="22.8"/>
	</g>
</g>
<g id="XMLID_266_" class="st0">
	<circle id="XMLID_265_" class="st27" cx="30.1" cy="30.1" r="13.2"/>
	<line id="XMLID_267_" class="st2" x1="18.8" y1="19.1" x2="23.2" y2="23.5"/>
	<line id="XMLID_269_" class="st2" x1="42.7" y1="20.3" x2="38.3" y2="24.7"/>
	<line id="XMLID_251_" class="st2" x1="25.2" y1="37.7" x2="21" y2="41.8"/>
	<g id="XMLID_235_" class="st5">
		<circle id="XMLID_230_" class="st16" cx="45.2" cy="17.6" r="3.9"/>
		<circle id="XMLID_229_" class="st16" cx="45.1" cy="16.2" r="1"/>
		<path id="XMLID_226_" class="st16" d="M43.5,20.5v-0.9c0-0.9,0.7-1.6,1.6-1.6l0,0c0.9,0,1.6,0.7,1.6,1.6v0.9"/>
	</g>
	<g id="XMLID_243_" class="st5">
		<circle id="XMLID_250_" class="st28" cx="30.1" cy="30.1" r="5.4"/>
		<circle id="XMLID_248_" class="st28" cx="30" cy="28.1" r="1.4"/>
		<path id="XMLID_244_" class="st28" d="M27.9,34.1v-1.3c0-1.2,1-2.2,2.2-2.2l0,0c1.2,0,2.2,1,2.2,2.2v1.3"/>
	</g>
	<g id="XMLID_234_" class="st5">
		<circle id="XMLID_238_" class="st16" cx="18.7" cy="44.6" r="3.9"/>
		<circle id="XMLID_237_" class="st16" cx="18.7" cy="43.1" r="1"/>
		<path id="XMLID_236_" class="st16" d="M17.1,47.5v-0.9c0-0.9,0.7-1.6,1.6-1.6l0,0c0.9,0,1.6,0.7,1.6,1.6v0.9"/>
	</g>
	<g id="XMLID_239_" class="st5">
		<circle id="XMLID_242_" class="st16" cx="16.3" cy="16.8" r="3.9"/>
		<circle id="XMLID_241_" class="st16" cx="16.3" cy="15.4" r="1"/>
		<path id="XMLID_240_" class="st16" d="M14.7,19.7v-0.9c0-0.9,0.7-1.6,1.6-1.6l0,0c0.9,0,1.6,0.7,1.6,1.6v0.9"/>
	</g>
	<g id="XMLID_228_" class="st5">
		<line id="XMLID_256_" class="st16" x1="36.7" y1="36.2" x2="39.6" y2="39.1"/>
		<path id="XMLID_253_" class="st29" d="M23.2,22.7c-3.8,3.8-3.8,10,0,13.9c3.8,3.8,10,3.8,13.9,0s3.8-10,0-13.9
			C33.3,18.9,27,18.9,23.2,22.7z M36.3,35.8c-3.4,3.4-8.9,3.4-12.3,0c-3.4-3.4-3.4-8.9,0-12.3s8.9-3.4,12.3,0
			C39.7,26.9,39.7,32.4,36.3,35.8z"/>
		<path id="XMLID_252_" class="st16" d="M25.4,24.9c2.6-2.6,6.9-2.6,9.5,0"/>
		<path id="XMLID_249_" class="st30" d="M37.4,39.6l10.9,10.9c0.8,0.8,2,0.8,2.7,0L38.8,38.3L37.4,39.6z"/>
		<path id="XMLID_247_" class="st21" d="M38.8,38.3L51,50.5c0.8-0.8,0.8-2,0-2.7L40.1,36.9L38.8,38.3z"/>
		<line id="XMLID_246_" class="st16" x1="39.3" y1="41.7" x2="42.2" y2="38.8"/>
		<line id="XMLID_245_" class="st16" x1="40.5" y1="42.9" x2="43.4" y2="40"/>
	</g>
</g>
<g id="XMLID_276_" class="st0">
	<rect id="XMLID_268_" x="12.2" y="24" class="st9" width="39.6" height="16.9"/>
	<rect id="XMLID_264_" x="12.2" y="41.3" class="st1" width="39.6" height="6.1"/>
	<polygon id="XMLID_263_" class="st31" points="34.9,32.8 29.5,29.6 29.5,35.9 34.9,32.8 29.5,29.6 29.5,35.9 	"/>
	<line id="XMLID_262_" class="st2" x1="12.2" y1="40.9" x2="51.8" y2="40.9"/>
	<polyline id="XMLID_260_" class="st2" points="37.5,24.3 51.3,24.3 51.3,36.7 	"/>
	<rect id="XMLID_259_" x="15.7" y="42.4" class="st22" width="32" height="0.8"/>
	<rect id="XMLID_258_" x="15.7" y="42.4" class="st15" width="14.6" height="0.8"/>
	<rect id="XMLID_257_" x="30" y="41.7" class="st15" width="0.6" height="2.1"/>
	<path id="XMLID_271_" class="st9" d="M52.1,48.1H11.7c-1,0-1.8-0.7-2-1.7l-0.3-1.8h45.1l-0.3,1.5C54.1,47.3,53.2,48.1,52.1,48.1z"
		/>
	<path id="XMLID_270_" class="st2" d="M52.1,48.1H11.7c-1,0-1.8-0.7-2-1.7l-0.3-1.8h45.1l-0.3,1.5C54.1,47.3,53.2,48.1,52.1,48.1z"
		/>
	<path id="XMLID_474_" class="st32" d="M51,16.9H37.8c-2.1,0-3.9,1.7-3.9,3.9v4.3"/>
	<polyline id="XMLID_575_" class="st32" points="35.4,24 34,25.5 32.6,24 	"/>
	<path id="XMLID_272_" class="st33" d="M30.3,16.2v4.3c0,2.1-1.7,3.9-3.9,3.9H12.7v12.4"/>
	<polyline id="XMLID_273_" class="st33" points="28.8,17.3 30.3,15.9 31.7,17.3 	"/>
</g>
<g id="XMLID_261_" class="st0">
	<rect id="XMLID_726_" x="14.1" y="27.5" class="st31" width="35.7" height="22.1"/>
	<polygon id="XMLID_274_" class="st9" points="14.1,49.6 32.1,38.5 14.1,27.4 	"/>
	<polygon id="XMLID_275_" class="st9" points="49.9,49.6 31.9,38.5 49.9,27.4 	"/>
	<polygon id="XMLID_730_" class="st12" points="49.8,27.5 31.9,14.4 14.1,27.5 	"/>
	<polygon id="XMLID_733_" class="st14" points="49.8,49.5 31.9,36.4 14.1,49.5 	"/>
	<polyline id="XMLID_277_" class="st2" points="49.7,49 14.5,49 14.5,34.8 	"/>
	<g id="XMLID_320_" class="st5">
		<polygon id="XMLID_344_" class="st7" points="46.7,31.7 45.5,34.6 46.7,37.5 37.7,37.5 37.7,31.7 		"/>
		<polygon id="XMLID_343_" class="st34" points="46.7,31.7 45.5,34.6 46.7,37.5 37.7,37.5 37.7,31.7 		"/>
		<polygon id="XMLID_346_" class="st7" points="17.5,31.7 18.6,34.6 17.5,37.5 26.4,37.5 26.4,31.7 		"/>
		<polygon id="XMLID_345_" class="st34" points="17.5,31.7 18.6,34.6 17.5,37.5 26.4,37.5 26.4,31.7 		"/>
		<path id="XMLID_315_" class="st18" d="M40.4,35.7l-1.1,1.6c-0.1,0.2-0.2,0.4-0.3,0.7l-0.4,1.9c-0.1,0.8-0.7,1.3-1.5,1.5l-1.9,0.4
			c-0.2,0-0.5,0.1-0.7,0.3L33,43.1c-0.6,0.4-1.5,0.4-2.1,0L29.2,42c-0.2-0.1-0.4-0.2-0.7-0.3l-1.9-0.4c-0.8-0.1-1.3-0.7-1.5-1.5
			l-0.4-1.9c0-0.2-0.1-0.5-0.3-0.7l-1.1-1.6c-0.4-0.6-0.4-1.5,0-2.1l1.1-1.6c0.1-0.2,0.2-0.4,0.3-0.7l0.4-1.9
			c0.1-0.8,0.7-1.3,1.5-1.5l1.9-0.4c0.2,0,0.5-0.1,0.7-0.3l1.6-1.1c0.6-0.4,1.5-0.4,2.1,0l1.6,1.1c0.2,0.1,0.4,0.2,0.7,0.3l1.9,0.4
			c0.8,0.1,1.3,0.7,1.5,1.5l0.4,1.9c0,0.2,0.1,0.5,0.3,0.7l1.1,1.6C40.8,34.2,40.8,35,40.4,35.7z"/>
		<circle id="XMLID_319_" class="st21" cx="31.9" cy="34.6" r="6"/>
		<path id="XMLID_342_" class="st6" d="M34.5,38.7L32,37.4c0,0-0.1,0-0.2,0l-2.4,1.3c-0.1,0.1-0.3,0-0.2-0.2l0.4-2.7
			c0-0.1,0-0.1,0-0.1l-2-1.9c-0.1-0.1,0-0.3,0.1-0.3l2.7-0.4c0.1,0,0.1,0,0.1-0.1l1.2-2.5c0.1-0.1,0.2-0.1,0.3,0l1.3,2.5
			c0,0,0.1,0.1,0.1,0.1l2.7,0.4c0.1,0,0.2,0.2,0.1,0.3l-2,2c0,0-0.1,0.1,0,0.1l0.5,2.7C34.7,38.7,34.6,38.8,34.5,38.7z"/>
		<line id="XMLID_341_" class="st16" x1="31.9" y1="23.1" x2="31.9" y2="24.8"/>
		<line id="XMLID_340_" class="st16" x1="34.5" y1="23.5" x2="34" y2="25.1"/>
		<line id="XMLID_339_" class="st16" x1="36.9" y1="24.5" x2="36" y2="25.9"/>
		<line id="XMLID_338_" class="st16" x1="38.9" y1="26.1" x2="37.7" y2="27.3"/>
		<line id="XMLID_337_" class="st16" x1="40.5" y1="28.1" x2="39" y2="29"/>
		<line id="XMLID_336_" class="st16" x1="41.5" y1="30.5" x2="39.9" y2="31"/>
		<line id="XMLID_325_" class="st16" x1="22.3" y1="30.3" x2="24" y2="30.8"/>
		<line id="XMLID_324_" class="st16" x1="23.4" y1="28" x2="24.8" y2="28.8"/>
		<line id="XMLID_323_" class="st16" x1="25" y1="25.9" x2="26.2" y2="27.1"/>
		<line id="XMLID_322_" class="st16" x1="27.1" y1="24.4" x2="27.9" y2="25.9"/>
		<line id="XMLID_321_" class="st16" x1="29.5" y1="23.4" x2="29.9" y2="25.1"/>
		<line id="XMLID_347_" class="st16" x1="31.9" y1="46.2" x2="31.9" y2="44.5"/>
		<line id="XMLID_335_" class="st16" x1="34.5" y1="45.8" x2="34" y2="44.2"/>
		<line id="XMLID_334_" class="st16" x1="36.9" y1="44.8" x2="36" y2="43.4"/>
		<line id="XMLID_333_" class="st16" x1="38.9" y1="43.3" x2="37.7" y2="42.1"/>
		<line id="XMLID_332_" class="st16" x1="40.5" y1="41.2" x2="39" y2="40.3"/>
		<line id="XMLID_331_" class="st16" x1="41.5" y1="38.8" x2="39.9" y2="38.3"/>
		<line id="XMLID_330_" class="st16" x1="22.3" y1="39" x2="24" y2="38.5"/>
		<line id="XMLID_329_" class="st16" x1="23.4" y1="41.4" x2="24.8" y2="40.5"/>
		<line id="XMLID_328_" class="st16" x1="25" y1="43.4" x2="26.2" y2="42.2"/>
		<line id="XMLID_327_" class="st16" x1="27.1" y1="44.9" x2="27.9" y2="43.4"/>
		<line id="XMLID_326_" class="st16" x1="29.5" y1="45.9" x2="29.9" y2="44.2"/>
	</g>
</g>
<g id="XMLID_295_" class="st0">
	<path id="XMLID_854_" class="st1" d="M42.4,42L41,34.5c0.8-1.8,1.3-3.8,1.3-5.8c0-7.9-6.4-14.3-14.3-14.3
		c-7.9,0-14.3,6.4-14.3,14.3C13.6,36.5,20,43,28,43c2.8,0,5.4-0.8,7.6-2.2L42.4,42z"/>
	<path id="XMLID_292_" class="st2" d="M13.6,28.6C13.6,36.5,20,43,28,43c2.8,0,5.4-0.8,7.6-2.2l6.9,1.3"/>
	<ellipse id="XMLID_290_" class="st35" cx="28" cy="28.6" rx="12.3" ry="12"/>
	<path id="XMLID_207_" class="st2" d="M46.9,40.5c0,0.6-1.3,0.6-1.3,1.3c0,0.6,1.3,0.6,1.3,1.3c0,0.6-1.3,0.6-1.3,1.3
		c0,0.6,1.3,0.6,1.3,1.3"/>
	<path id="XMLID_291_" class="st2" d="M46,20.9c0,0.6-1.3,0.6-1.3,1.3c0,0.6,1.3,0.6,1.3,1.3c0,0.6-1.3,0.6-1.3,1.3
		c0,0.6,1.3,0.6,1.3,1.3"/>
	<circle id="XMLID_204_" class="st2" cx="36.6" cy="47.6" r="1.3"/>
	<circle id="XMLID_293_" class="st2" cx="49" cy="48.9" r="0.8"/>
	<circle id="XMLID_294_" class="st2" cx="49.4" cy="33.4" r="1"/>
	<path id="XMLID_286_" class="st2" d="M36.4,29.8c0,2.2-0.9,4.2-2.4,5.7c-1.5,1.5-3.5,2.4-5.7,2.4c-2.2,0-4.2-0.9-5.7-2.4
		s-2.4-3.5-2.4-5.7"/>
	<g id="XMLID_289_" class="st5">
		<path id="XMLID_285_" class="st16" d="M26.3,23.4c0,0.6-0.2,1.1-0.6,1.5c-0.4,0.4-0.9,0.6-1.5,0.6c-0.6,0-1.1-0.2-1.5-0.6
			C22.2,24.5,22,24,22,23.4"/>
		<path id="XMLID_288_" class="st16" d="M34.7,23.4c0,0.6-0.2,1.1-0.6,1.5c-0.4,0.4-0.9,0.6-1.5,0.6c-0.6,0-1.1-0.2-1.5-0.6
			c-0.4-0.4-0.6-0.9-0.6-1.5"/>
	</g>
</g>
<g id="XMLID_296_" class="st0">
	<g id="XMLID_860_" class="st5">
		<path id="XMLID_866_" class="st17" d="M18.8,49V16c0-0.8,0.6-1.4,1.4-1.4h23.4c0.8,0,1.4,0.6,1.4,1.4V49H18.8z"/>
		<path id="XMLID_279_" class="st16" d="M18.8,46.1V16c0-0.8,0.6-1.4,1.4-1.4h23.4c0.8,0,1.4,0.6,1.4,1.4v8.4"/>
		<line id="XMLID_863_" class="st16" x1="28.6" y1="17.5" x2="35.3" y2="17.5"/>
		<rect id="XMLID_862_" x="20.8" y="19.8" class="st23" width="22.2" height="29"/>
		<polygon id="XMLID_861_" class="st36" points="42,19.8 42,47.8 20.8,47.8 20.8,48.8 43,48.8 43,19.8 		"/>
	</g>
	<rect id="XMLID_278_" x="22.4" y="35.8" class="st31" width="13.7" height="0.8"/>
	<rect id="XMLID_280_" x="22.4" y="38.1" class="st31" width="13.7" height="0.8"/>
	<rect id="XMLID_281_" x="22.4" y="40.5" class="st31" width="13.7" height="0.8"/>
	<rect id="XMLID_282_" x="22.4" y="42.8" class="st31" width="13.7" height="0.8"/>
	<rect id="XMLID_283_" x="22.4" y="45.1" class="st31" width="13.7" height="0.8"/>
	<rect id="XMLID_284_" x="22.4" y="23.1" class="st4" width="14.3" height="11.5"/>
	<g id="XMLID_499_" class="st5">
		<path id="XMLID_472_" class="st17" d="M49.1,29.6c-0.8,0-1.5,0.7-1.5,1.5v-1.6c0-0.8-0.7-1.5-1.5-1.5c-0.8,0-1.5,0.7-1.5,1.5v-1.6
			c0-0.8-0.7-1.5-1.5-1.5c-0.8,0-1.5,0.7-1.5,1.5v-4.8c0-0.8-0.7-1.5-1.5-1.5c-0.8,0-1.5,0.7-1.5,1.5v9.5h-2.1c-0.6,0-1,0.5-1,1v6.7
			c0,0.5,0.3,1,0.8,1.3l1.2,0.6c0.5,0.2,0.8,0.7,0.8,1.3v2.9h10.1v-3.3c0-0.3,0.1-0.6,0.4-0.9l1.5-1.5c0.3-0.3,0.4-0.6,0.4-1v-8.6
			C50.6,30.2,49.9,29.6,49.1,29.6z"/>
		<path id="XMLID_460_" class="st16" d="M41.5,33.1v-10c0-0.8-0.7-1.5-1.5-1.5l0,0c-0.8,0-1.5,0.7-1.5,1.5v12.3"/>
		<path id="XMLID_461_" class="st16" d="M44.5,30.5v-2.6c0-0.8-0.7-1.5-1.5-1.5l0,0c-0.8,0-1.5,0.7-1.5,1.5v2.6"/>
		<path id="XMLID_462_" class="st16" d="M47.5,33.1v-3.6c0-0.8-0.7-1.5-1.5-1.5l0,0c-0.8,0-1.5,0.7-1.5,1.5v3.6"/>
		<path id="XMLID_464_" class="st16" d="M47.5,32.5v-1.4c0-0.8,0.7-1.5,1.5-1.5l0,0c0.8,0,1.5,0.7,1.5,1.5v8.6c0,0.4-0.2,0.8-0.4,1
			l-1.5,1.5c-0.2,0.2-0.4,0.5-0.4,0.9v3.3"/>
		<path id="XMLID_463_" class="st16" d="M38.4,32.6h-2.1c-0.6,0-1,0.5-1,1v6.7c0,0.5,0.3,1,0.8,1.3l1.2,0.6c0.5,0.2,0.8,0.7,0.8,1.3
			v2.9"/>
		<rect id="XMLID_459_" x="36.8" y="43.7" class="st26" width="12.9" height="5.5"/>
		<rect id="XMLID_470_" x="36.8" y="43.7" class="st7" width="3.9" height="5.5"/>
	</g>
	<line id="XMLID_851_" class="st2" x1="11" y1="49.4" x2="53" y2="49.4"/>
</g>
<g id="XMLID_797_" class="st0">
	<rect id="XMLID_311_" x="17.3" y="15.2" class="st14" width="32.9" height="28.5"/>
	<rect id="XMLID_310_" x="15.3" y="17.2" class="st12" width="32.9" height="28.5"/>
	<rect id="XMLID_1454_" x="13.8" y="20.2" class="st9" width="32.9" height="28.5"/>
	<rect id="XMLID_1456_" x="14.3" y="19.6" class="st31" width="32.4" height="3.5"/>
	<rect id="XMLID_1457_" x="14.3" y="23.1" class="st35" width="32.4" height="8.5"/>
	<ellipse id="XMLID_1467_" class="st15" cx="16.4" cy="21.4" rx="0.5" ry="0.4"/>
	<ellipse id="XMLID_1468_" class="st15" cx="18.5" cy="21.4" rx="0.5" ry="0.4"/>
	<ellipse id="XMLID_1469_" class="st15" cx="20.6" cy="21.4" rx="0.5" ry="0.4"/>
	<g id="XMLID_786_" class="st5">
		<rect id="XMLID_787_" x="25.5" y="35.8" class="st23" width="17.3" height="0.8"/>
	</g>
	<g id="XMLID_304_" class="st5">
		<rect id="XMLID_305_" x="25.7" y="25.7" class="st20" width="17.3" height="0.4"/>
	</g>
	<g id="XMLID_306_" class="st5">
		<rect id="XMLID_307_" x="30" y="27.1" class="st20" width="8.7" height="0.4"/>
	</g>
	<g id="XMLID_308_" class="st5">
		<rect id="XMLID_309_" x="30" y="28.6" class="st20" width="8.7" height="0.4"/>
	</g>
	<g id="XMLID_785_" class="st5">
		<rect id="XMLID_788_" x="25.5" y="38" class="st23" width="17.3" height="0.8"/>
	</g>
	<g id="XMLID_789_" class="st5">
		<rect id="XMLID_790_" x="25.5" y="40.1" class="st23" width="9.8" height="0.8"/>
	</g>
	<polyline id="XMLID_303_" class="st2" points="46.5,48.4 14.3,48.4 14.3,23.4 24.5,23.4 	"/>
	<line id="XMLID_301_" class="st2" x1="14.3" y1="19.3" x2="14.3" y2="23.4"/>
	<rect id="XMLID_297_" x="18.5" y="29" class="st1" width="5.2" height="5.2"/>
	<rect id="XMLID_299_" x="18.5" y="29" class="st2" width="5.2" height="5.2"/>
	<rect id="XMLID_298_" x="18.8" y="36.1" class="st14" width="4.2" height="4.2"/>
	<rect id="XMLID_300_" x="18.5" y="42" class="st14" width="4.2" height="4.2"/>
	<polyline id="XMLID_302_" class="st2" points="14.3,19.6 46.2,19.6 46.2,23.1 	"/>
</g>
<g id="XMLID_317_" class="st0">
	<path id="XMLID_313_" class="st37" d="M46.2,50.6v-34c0-0.5-0.4-1-1-1H19.3c-0.5,0-1,0.4-1,1v34H46.2z"/>
	<path id="XMLID_393_" class="st2" d="M24.9,15.6h-5.5c-0.5,0-1,0.4-1,1v34"/>
	<path id="XMLID_391_" class="st2" d="M46.2,50.6v-34c0-0.5-0.4-1-1-1h-5.4"/>
	<rect id="XMLID_353_" x="20.5" y="21.1" class="st1" width="23.6" height="29.4"/>
	<polygon id="XMLID_352_" class="st22" points="43,21.1 43,49.5 20.5,49.5 20.5,50.6 44.1,50.6 44.1,21.1 	"/>
	<circle id="XMLID_360_" class="st2" cx="32.2" cy="18.5" r="1.2"/>
	<line id="XMLID_314_" class="st2" x1="32.2" y1="13.4" x2="32.2" y2="15.6"/>
	<line id="XMLID_312_" class="st2" x1="34.8" y1="14.1" x2="33.7" y2="16"/>
	<line id="XMLID_316_" class="st2" x1="36.7" y1="16" x2="34.8" y2="17.1"/>
	<line id="XMLID_318_" class="st2" x1="36.6" y1="21.2" x2="34.7" y2="20"/>
	<line id="XMLID_351_" class="st2" x1="34.7" y1="23" x2="33.7" y2="21.1"/>
	<line id="XMLID_354_" class="st2" x1="32.2" y1="23.7" x2="32.2" y2="21.5"/>
	<line id="XMLID_355_" class="st2" x1="29.6" y1="22.9" x2="30.7" y2="21"/>
	<line id="XMLID_356_" class="st2" x1="27.8" y1="21" x2="29.7" y2="20"/>
	<line id="XMLID_394_" class="st2" x1="27.9" y1="15.9" x2="29.8" y2="17"/>
	<line id="XMLID_395_" class="st2" x1="29.8" y1="14" x2="30.9" y2="16"/>
	<path id="XMLID_348_" class="st15" d="M36.1,48h-7.7c-1,0-1.8-0.8-1.8-1.8v-1.6c0-1,0.8-1.8,1.8-1.8h7.7c1,0,1.8,0.8,1.8,1.8v1.6
		C37.8,47.3,37,48,36.1,48z"/>
	<circle id="XMLID_349_" class="st3" cx="32.2" cy="45.5" r="1.7"/>
	<g id="XMLID_383_" class="st5">
		<circle id="XMLID_382_" class="st38" cx="32" cy="31.3" r="2.4"/>
		<path id="XMLID_381_" class="st38" d="M28.2,39.6v-0.5c0-2.2,1.8-4,4-4l0,0c2.2,0,4,1.8,4,4v0.5"/>
	</g>
	<line id="XMLID_388_" class="st2" x1="14.2" y1="50.6" x2="49.8" y2="50.6"/>
	<polyline id="XMLID_350_" class="st39" points="23.8,29 23.8,27.3 25.4,27.3 	"/>
	<polyline id="XMLID_380_" class="st39" points="39.9,29 39.9,27.3 38.3,27.3 	"/>
	<polyline id="XMLID_390_" class="st39" points="23.8,38.8 23.8,40.5 25.4,40.5 	"/>
	<polyline id="XMLID_389_" class="st39" points="39.9,38.8 39.9,40.5 38.3,40.5 	"/>
</g>
<g id="XMLID_451_" class="st0">
	<g id="XMLID_422_" class="st5">
		<line id="XMLID_424_" class="st16" x1="32.7" y1="32" x2="35.7" y2="32"/>
		<line id="XMLID_423_" class="st16" x1="34.2" y1="33.5" x2="34.2" y2="30.5"/>
	</g>
	<g id="XMLID_397_" class="st5">
		<line id="XMLID_445_" class="st16" x1="40.5" y1="27.7" x2="45" y2="27.7"/>
		<line id="XMLID_444_" class="st16" x1="42.7" y1="30" x2="42.7" y2="25.5"/>
	</g>
	<g id="XMLID_446_" class="st5">
		<line id="XMLID_448_" class="st16" x1="43.4" y1="35.6" x2="48.5" y2="35.6"/>
		<line id="XMLID_447_" class="st16" x1="45.9" y1="38.1" x2="45.9" y2="33"/>
	</g>
	<g id="XMLID_401_" class="st5">
		<path id="XMLID_403_" class="st18" d="M38.5,17.7c-1,0-1.9,0.4-2.5,1c-0.6,0.6-1,1.5-1,2.5c0,1,0.4,1.9,1,2.5c0.6,0.6,1.5,1,2.5,1
			c1,0,1.9-0.4,2.5-1c0.6-0.6,1-1.5,1-2.5c0-1-0.4-1.9-1-2.5C40.3,18.1,39.4,17.7,38.5,17.7z"/>
		<path id="XMLID_402_" class="st7" d="M38.5,39.2c-1,0-1.9,0.4-2.5,1c-0.6,0.6-1,1.5-1,2.5c0,1,0.4,1.9,1,2.5c0.6,0.6,1.5,1,2.5,1
			c1,0,1.9-0.4,2.5-1c0.6-0.6,1-1.5,1-2.5c0-1-0.4-1.9-1-2.5C40.3,39.6,39.4,39.2,38.5,39.2z"/>
		<path id="XMLID_400_" class="st23" d="M23.9,28.9c-1,0-1.9,0.4-2.5,1c-0.6,0.6-1,1.5-1,2.5c0,1,0.4,1.9,1,2.5c0.6,0.6,1.5,1,2.5,1
			c1,0,1.9-0.4,2.5-1c0.6-0.6,1-1.5,1-2.5c0-1-0.4-1.9-1-2.5C25.7,29.3,24.8,28.9,23.9,28.9z"/>
		<path id="XMLID_399_" class="st16" d="M26.8,30.6c0-0.1-0.4-0.6-0.5-0.6c-0.6-0.6-1.5-1-2.5-1c-1,0-1.9,0.4-2.5,1
			c-0.6,0.6-1,1.5-1,2.5c0,1,0.4,1.9,1,2.5c0.6,0.6,1.5,1,2.5,1c1,0,1.9-0.4,2.5-1c0.3-0.2,0.6-0.8,0.8-1.2"/>
		<path id="XMLID_398_" class="st16" d="M35.8,23.8c0.7,0.7,1.6,1.1,2.6,1.1c1,0,2-0.4,2.6-1.1c0.7-0.7,1.1-1.6,1.1-2.6
			c0-1-0.4-2-1.1-2.6c-0.7-0.7-1.6-1.1-2.6-1.1c-1,0-2,0.4-2.6,1.1"/>
		<path id="XMLID_404_" class="st16" d="M35.8,45.5c0.7,0.7,1.6,1.1,2.6,1.1c1,0,2-0.4,2.6-1.1c0.7-0.7,1.1-1.6,1.1-2.6
			c0-1-0.4-2-1.1-2.6c-0.7-0.7-1.6-1.1-2.6-1.1c-1,0-2,0.4-2.6,1.1"/>
		<line id="XMLID_396_" class="st16" x1="36.4" y1="40.3" x2="27.2" y2="34.3"/>
		<line id="XMLID_392_" class="st16" x1="36.1" y1="23.4" x2="26.8" y2="30"/>
	</g>
	<line id="XMLID_450_" class="st2" x1="15.5" y1="18.4" x2="24.6" y2="18.4"/>
	<line id="XMLID_455_" class="st2" x1="20.9" y1="20.7" x2="30" y2="20.7"/>
	<line id="XMLID_449_" class="st2" x1="36.2" y1="18.4" x2="27.4" y2="18.4"/>
	<line id="XMLID_454_" class="st2" x1="19.3" y1="42.2" x2="31.8" y2="42.2"/>
	<line id="XMLID_453_" class="st2" x1="16.1" y1="45.6" x2="25.2" y2="45.6"/>
	<line id="XMLID_452_" class="st2" x1="36.2" y1="45.6" x2="27.4" y2="45.6"/>
</g>
<g id="XMLID_458_" class="st0">
	<rect id="XMLID_456_" x="24.3" y="18.8" class="st12" width="27.9" height="16.5"/>
	<rect id="XMLID_457_" x="24.3" y="18.8" class="st2" width="27.9" height="16.5"/>
	<rect id="XMLID_483_" x="11.8" y="22" class="st15" width="37.2" height="23.2"/>
	<rect id="XMLID_482_" x="15.1" y="25.3" class="st3" width="30.6" height="16.8"/>
	<polygon id="XMLID_798_" class="st1" points="31.5,41.8 24,32.2 16.2,41.8 	"/>
	<polyline id="XMLID_481_" class="st2" points="27.8,37 24,32.2 16.2,41.8 	"/>
	<polygon id="XMLID_796_" class="st35" points="42,41.6 32.5,29.3 22.4,41.6 	"/>
	<line id="XMLID_800_" class="st2" x1="15" y1="41.8" x2="45.8" y2="41.8"/>
	<path id="XMLID_480_" class="st15" d="M44,32.6c0-0.2-0.2-0.4-0.4-0.4c-0.1,0-0.1,0-0.2,0c-0.1-0.2-0.2-0.3-0.4-0.3
		c0,0,0-0.1,0-0.1c0-0.4-0.3-0.6-0.6-0.6c-0.2,0-0.3,0.1-0.4,0.2c0-0.6-0.6-1.1-1.2-1.1c-0.5,0-1,0.4-1.1,0.9c-0.1,0-0.1,0-0.2,0
		c-0.4,0-0.7,0.3-0.8,0.6c-0.1,0-0.2-0.1-0.3-0.1c-0.4,0-0.7,0.3-0.7,0.7c0,0.1,0,0.3,0.1,0.4H44C44,32.7,44,32.6,44,32.6z"/>
	<path id="XMLID_479_" class="st15" d="M20.7,33.4c0-0.1-0.1-0.2-0.2-0.2c0,0-0.1,0-0.1,0c0-0.1-0.1-0.1-0.2-0.2c0,0,0,0,0-0.1
		c0-0.2-0.2-0.4-0.4-0.4c-0.1,0-0.2,0-0.2,0.1c0-0.3-0.3-0.6-0.7-0.6c-0.3,0-0.6,0.2-0.6,0.5c0,0-0.1,0-0.1,0
		c-0.2,0-0.4,0.1-0.4,0.3c0,0-0.1,0-0.2,0c-0.2,0-0.4,0.2-0.4,0.4c0,0.1,0,0.1,0.1,0.2h3.4C20.7,33.4,20.7,33.4,20.7,33.4z"/>
	<path id="XMLID_478_" class="st15" d="M29.3,29.9c0-0.2-0.2-0.3-0.3-0.3c-0.1,0-0.1,0-0.1,0c-0.1-0.1-0.2-0.2-0.3-0.3
		c0,0,0-0.1,0-0.1c0-0.3-0.3-0.6-0.6-0.6c-0.1,0-0.3,0.1-0.4,0.2c0-0.5-0.5-1-1-1c-0.5,0-0.9,0.3-1,0.8c0,0-0.1,0-0.1,0
		c-0.3,0-0.6,0.2-0.7,0.5c-0.1,0-0.2,0-0.2,0c-0.4,0-0.6,0.3-0.6,0.6c0,0.1,0,0.2,0.1,0.3h5.3C29.3,30,29.3,30,29.3,29.9z"/>
	<polyline id="XMLID_477_" class="st2" points="22.4,41.6 32.5,29.3 42,41.6 	"/>
	<polyline id="XMLID_465_" class="st2" points="49,37.4 49,45.2 11.8,45.2 11.8,22 22,22 	"/>
</g>
<g id="XMLID_476_" class="st0">
	<path id="XMLID_809_" class="st4" d="M50.1,24.9v15.1h-1.9v2.6v4.8c0,0.3-0.3,0.4-0.5,0.2l-6.3-7.6h-19V24.9H50.1z"/>
	<path id="XMLID_467_" class="st2" d="M50.1,39.9h-1.9v2.6v4.8c0,0.3-0.3,0.4-0.5,0.2l-6.3-7.6h-19"/>
	<path id="XMLID_466_" class="st1" d="M13.9,14.1v15.7h2v2.7v5c0,0.3,0.3,0.4,0.5,0.2l6.6-7.9h19.8V14.1H13.9z"/>
	<path id="XMLID_475_" class="st2" d="M13.9,29.9h2v2.7v5c0,0.3,0.3,0.4,0.5,0.2l6.6-7.9h19.8"/>
	<line id="XMLID_803_" class="st39" x1="17.4" y1="18.1" x2="38.4" y2="18.1"/>
	<line id="XMLID_802_" class="st39" x1="17.4" y1="21.6" x2="38.4" y2="21.6"/>
	<line id="XMLID_801_" class="st39" x1="17.4" y1="25.1" x2="29.8" y2="25.1"/>
	<line id="XMLID_817_" class="st2" x1="40.3" y1="42.3" x2="29.4" y2="42.3"/>
	<line id="XMLID_818_" class="st2" x1="42.2" y1="44.7" x2="38" y2="44.7"/>
	<line id="XMLID_468_" class="st2" x1="45.6" y1="47.1" x2="32.8" y2="47.1"/>
	<line id="XMLID_469_" class="st2" x1="17.8" y1="47.1" x2="30.7" y2="47.1"/>
	<line id="XMLID_471_" class="st2" x1="14.9" y1="49.9" x2="37.5" y2="49.9"/>
	<line id="XMLID_473_" class="st2" x1="48.4" y1="49.9" x2="39.2" y2="49.9"/>
	<line id="XMLID_819_" class="st2" x1="25.2" y1="44.7" x2="36.2" y2="44.7"/>
</g>
<g id="XMLID_489_" class="st0">
	<rect id="XMLID_495_" x="13.3" y="20.5" class="st15" width="35.7" height="22.2"/>
	<polyline id="XMLID_497_" class="st2" points="49,25 49,42.7 46.8,42.7 	"/>
	<line id="XMLID_498_" class="st2" x1="27.5" y1="20.5" x2="31.1" y2="20.5"/>
	<polyline id="XMLID_484_" class="st2" points="28.3,42.7 13.3,42.7 13.3,27.6 	"/>
	<rect id="XMLID_494_" x="16.5" y="23.6" class="st14" width="29.3" height="16.1"/>
	<polygon id="XMLID_493_" class="st40" points="32.2,39.9 25,30.7 17.5,39.9 	"/>
	<polygon id="XMLID_491_" class="st41" points="42.3,39.7 33.1,27.9 23.4,39.7 	"/>
	<path id="XMLID_502_" class="st1" d="M27,28.4l-0.7-4c0.4-0.9,0.7-2,0.7-3.1c0-4.2-3.4-7.6-7.6-7.6c-4.2,0-7.6,3.4-7.6,7.6
		s3.4,7.6,7.6,7.6c1.5,0,2.9-0.4,4-1.2L27,28.4z"/>
	<ellipse id="XMLID_500_" class="st35" cx="19.4" cy="21.3" rx="6.5" ry="6.3"/>
	<path id="XMLID_492_" class="st1" d="M29.9,35.1l0.8,4.3c-0.5,1-0.7,2.1-0.7,3.3c0,4.5,3.6,8.1,8.1,8.1c4.5,0,8.1-3.6,8.1-8.1
		s-3.6-8.1-8.1-8.1c-1.6,0-3.1,0.5-4.3,1.2L29.9,35.1z"/>
	<ellipse id="XMLID_488_" class="st35" cx="38.1" cy="42.7" rx="7" ry="6.8"/>
	<g id="XMLID_368_" class="st5">
		<circle id="XMLID_371_" class="st16" cx="19.2" cy="21.3" r="3.7"/>
		<circle id="XMLID_370_" class="st16" cx="19.1" cy="19.9" r="1"/>
		<path id="XMLID_369_" class="st16" d="M17.6,24.1v-0.9c0-0.9,0.7-1.6,1.6-1.6l0,0c0.9,0,1.6,0.7,1.6,1.6v0.9"/>
	</g>
	<path id="XMLID_487_" class="st15" d="M41.9,42.1c0-1.3-1.1-2.4-2.4-2.4c-0.7,0-1.2,0.3-1.7,0.7c-0.4-0.4-1-0.7-1.7-0.7
		c-1.3,0-2.4,1.1-2.4,2.4c0,0.6,0.3,1.2,0.7,1.6l3.4,3.3l3.4-3.4c0,0,0.1-0.2,0.1-0.2C41.7,43.1,41.9,42.6,41.9,42.1z"/>
	<path id="XMLID_490_" class="st3" d="M32.2,13.1V24h1.4v1.8v3.5c0,0.2,0.2,0.3,0.4,0.1l4.6-5.5h13.7V13.1H32.2z"/>
	<line id="XMLID_486_" class="st2" x1="35.1" y1="15.9" x2="49.9" y2="15.9"/>
	<line id="XMLID_485_" class="st2" x1="35.1" y1="18.4" x2="46.8" y2="18.4"/>
	<line id="XMLID_496_" class="st2" x1="35.1" y1="21" x2="42.5" y2="21"/>
</g>
<g id="XMLID_508_" class="st0">
	<g id="XMLID_501_" class="st5">
		<circle id="XMLID_505_" class="st16" cx="32" cy="25.8" r="5.4"/>
		<circle id="XMLID_504_" class="st16" cx="31.9" cy="23.8" r="1.4"/>
		<path id="XMLID_503_" class="st16" d="M29.7,29.8v-1.3c0-1.2,1-2.3,2.3-2.3l0,0c1.2,0,2.3,1,2.3,2.3v1.3"/>
	</g>
	<g id="XMLID_690_" class="st5">
		<path id="XMLID_649_" class="st16" d="M16.3,50.8c0-8.7,7.1-15.8,15.8-15.8c8.7,0,15.8,7.1,15.8,15.8"/>
		<path id="XMLID_698_" class="st16" d="M37.6,36c2.4,3.9,3.8,9,3.8,14.7"/>
		<path id="XMLID_697_" class="st16" d="M27,36c-2.4,3.9-3.9,9-3.9,14.7"/>
		<line id="XMLID_694_" class="st16" x1="32.1" y1="35" x2="32.1" y2="50.8"/>
		<line id="XMLID_692_" class="st16" x1="17.8" y1="43.3" x2="46" y2="43.3"/>
		<line id="XMLID_507_" class="st16" x1="13.4" y1="50.8" x2="50.6" y2="50.8"/>
	</g>
	<path id="XMLID_707_" class="st1" d="M32,13.2c-7.7,0-14,6.3-14,14c0,7.7,14,23.5,14,23.5s14-15.8,14-23.5
		C45.9,19.5,39.7,13.2,32,13.2z M32,33.9c-4.5,0-8.1-3.6-8.1-8.1c0-4.5,3.6-8.1,8.1-8.1c4.5,0,8.1,3.6,8.1,8.1
		C40.1,30.3,36.4,33.9,32,33.9z"/>
	<g id="XMLID_772_" class="st5">
		<path id="XMLID_773_" class="st20" d="M32,13.2c-0.1,0-0.3,0-0.4,0c7.5,0.2,13.6,6.4,13.6,14c0,7-11.3,20.4-13.6,23.1
			c0.2,0.3,0.4,0.5,0.4,0.5s14-15.8,14-23.5C45.9,19.5,39.7,13.2,32,13.2z"/>
		<path id="XMLID_774_" class="st20" d="M31.6,17.7c-0.1,0-0.3,0-0.4,0c-4.5,0-8.1,3.6-8.1,8.1c0,4.5,3.6,8.1,8.1,8.1
			c0.1,0,0.3,0,0.4,0c-4.3-0.2-7.7-3.7-7.7-8.1S27.3,17.9,31.6,17.7z"/>
	</g>
	<circle id="XMLID_693_" class="st2" cx="32" cy="25.8" r="8.1"/>
	<circle id="XMLID_506_" class="st27" cx="32" cy="25.8" r="11.4"/>
</g>
<g id="XMLID_537_" class="st0">
	<g id="XMLID_529_" class="st5">
		<line id="XMLID_531_" class="st16" x1="18.1" y1="22.5" x2="21.6" y2="22.5"/>
		<line id="XMLID_530_" class="st16" x1="19.8" y1="24.3" x2="19.8" y2="20.8"/>
	</g>
	<g id="XMLID_532_" class="st5">
		<line id="XMLID_536_" class="st16" x1="38.8" y1="28" x2="42.3" y2="28"/>
		<line id="XMLID_533_" class="st16" x1="40.6" y1="29.7" x2="40.6" y2="26.2"/>
	</g>
	<g id="XMLID_525_" class="st5">
		<circle id="XMLID_528_" class="st16" cx="32.6" cy="22.1" r="5.5"/>
		<circle id="XMLID_527_" class="st16" cx="32.5" cy="20" r="1.4"/>
		<path id="XMLID_526_" class="st16" d="M30.3,26.1v-1.3c0-1.3,1-2.3,2.3-2.3l0,0c1.3,0,2.3,1,2.3,2.3v1.3"/>
	</g>
	<rect id="XMLID_535_" x="11.2" y="29" class="st15" width="19.1" height="11.9"/>
	<rect id="XMLID_523_" x="11.2" y="29" class="st10" width="19.1" height="11.9"/>
	<rect id="XMLID_534_" x="12.9" y="30.7" class="st1" width="15.7" height="8.6"/>
	<path id="XMLID_517_" class="st12" d="M53.8,46.1c0-1.5-1.2-2.7-2.7-2.7c-0.4,0-0.8,0.1-1.1,0.3c-0.5-1-1.5-1.8-2.7-2
		c0.1-0.3,0.2-0.5,0.2-0.8c0-2.5-2-4.5-4.5-4.5c-1.2,0-2.2,0.5-3,1.2c-0.3-4.3-3.8-7.7-8.2-7.7c-3.8,0-6.9,2.6-7.9,6
		c-0.4-0.1-0.7-0.1-1.1-0.1c-2.6,0-4.8,1.8-5.5,4.2c-0.6-0.2-1.2-0.4-1.9-0.4c-2.8,0-5.1,2.3-5.1,5.1c0,1,0.3,1.8,0.8,2.6h42.4
		C53.6,47,53.8,46.6,53.8,46.1z"/>
	<line id="XMLID_516_" class="st2" x1="22.6" y1="47.4" x2="53.8" y2="47.4"/>
	<line id="XMLID_509_" class="st2" x1="20.4" y1="47.4" x2="11.1" y2="47.4"/>
	<path id="XMLID_514_" class="st31" d="M21.9,37c2.7,0,4.9,2.2,4.9,4.9c0,0.6-0.1,1.1-0.3,1.6c0.5-0.8,0.8-1.7,0.8-2.7
		c0-2.7-2.2-4.9-4.9-4.9h0c-2.1,0-4,1.4-4.6,3.3C18.7,37.9,20.2,37,21.9,37z"/>
	<path id="XMLID_513_" class="st31" d="M46.2,42.3c-1.2,0.9-2.9,0.6-3.7-0.6c-0.2-0.2-0.3-0.5-0.4-0.8c0,0.5,0.2,1,0.5,1.5
		c0.9,1.2,2.5,1.5,3.7,0.6l0,0c1-0.7,1.3-1.9,1-2.9C47.4,40.9,47,41.8,46.2,42.3z"/>
	<path id="XMLID_512_" class="st2" d="M47.5,40.9c0-2.5-2-4.5-4.5-4.5c-1.2,0-2.2,0.5-3,1.2c-0.3-4.3-3.8-7.7-8.2-7.7
		c-3.8,0-6.9,2.6-7.9,6"/>
	<g id="XMLID_524_" class="st5">
		
			<ellipse id="XMLID_522_" transform="matrix(0.9854 -0.1704 0.1704 0.9854 -5.0639 7.9654)" class="st18" cx="43.9" cy="33.5" rx="2.3" ry="1.6"/>
		
			<ellipse id="XMLID_521_" transform="matrix(0.9854 -0.1704 0.1704 0.9854 -5.0639 7.9654)" class="st34" cx="43.9" cy="33.5" rx="2.3" ry="1.6"/>
		
			<ellipse id="XMLID_520_" transform="matrix(0.9854 -0.1704 0.1704 0.9854 -4.968 9.071)" class="st18" cx="50.4" cy="33.5" rx="2.3" ry="1.6"/>
		
			<ellipse id="XMLID_519_" transform="matrix(0.9854 -0.1704 0.1704 0.9854 -4.968 9.071)" class="st34" cx="50.4" cy="33.5" rx="2.3" ry="1.6"/>
		<line id="XMLID_518_" class="st34" x1="46.2" y1="25.1" x2="46.2" y2="33.3"/>
		<line id="XMLID_515_" class="st34" x1="52.7" y1="25.1" x2="52.7" y2="33.3"/>
		<rect id="XMLID_511_" x="46.2" y="24.8" class="st18" width="6.5" height="1.5"/>
		<rect id="XMLID_510_" x="46.2" y="24.8" class="st34" width="6.5" height="1.5"/>
	</g>
</g>
<g id="XMLID_551_" class="st0">
	<path id="XMLID_541_" class="st2" d="M32.1,37.7l-1.2,0c-0.6,0-1.1,0.5-1.1,1.1v1.7c0,0.6,0.5,1.1,1.1,1.1h5.4
		c0.6,0,1.1,0.5,1.1,1.1v1.6c0,0.6-0.5,1.1-1.1,1.1h-9.2c-0.6,0-1.1,0.5-1.1,1.1v1.7c0,0.6,0.5,1.1,1.1,1.1H31
		c0.6,0,1.1,0.5,1.1,1.1v2.2"/>
	<polygon id="XMLID_540_" class="st22" points="30.7,39.5 33.4,39.5 32.1,37 	"/>
	<path id="XMLID_206_" class="st2" d="M46,14.7c0,0.7-1.4,0.7-1.4,1.4c0,0.7,1.4,0.7,1.4,1.4c0,0.7-1.4,0.7-1.4,1.4
		c0,0.7,1.4,0.7,1.4,1.4"/>
	<path id="XMLID_547_" class="st2" d="M51.3,39.5c0,0.7-1.4,0.7-1.4,1.4c0,0.7,1.4,0.7,1.4,1.4c0,0.7-1.4,0.7-1.4,1.4
		c0,0.7,1.4,0.7,1.4,1.4"/>
	<path id="XMLID_543_" class="st2" d="M21.8,34.3c0,0.7-1.4,0.7-1.4,1.4c0,0.7,1.4,0.7,1.4,1.4c0,0.7-1.4,0.7-1.4,1.4
		c0,0.7,1.4,0.7,1.4,1.4"/>
	<path id="XMLID_545_" class="st2" d="M16.7,14.7c0,0.7-1.4,0.7-1.4,1.4c0,0.7,1.4,0.7,1.4,1.4c0,0.7-1.4,0.7-1.4,1.4
		c0,0.7,1.4,0.7,1.4,1.4"/>
	<circle id="XMLID_203_" class="st2" cx="16" cy="44.2" r="1"/>
	<circle id="XMLID_542_" class="st2" cx="48.5" cy="29.6" r="1"/>
	<circle id="XMLID_544_" class="st2" cx="12.7" cy="28.1" r="1"/>
	<circle id="XMLID_550_" class="st2" cx="51.3" cy="14.7" r="1"/>
	<circle id="XMLID_548_" class="st2" cx="42.1" cy="49.3" r="1"/>
	<circle id="XMLID_546_" class="st2" cx="25" cy="12.5" r="1"/>
	<circle id="XMLID_549_" class="st2" cx="42.1" cy="37.8" r="1"/>
	<path id="XMLID_538_" class="st1" d="M42.7,24.6c0,6.2-4.7,13.1-10.5,13.1s-10.5-7-10.5-13.1s4.7-11.2,10.5-11.2
		S42.7,18.5,42.7,24.6z"/>
	<path id="XMLID_539_" class="st2" d="M32.3,15.4c4.9,0,8.8,4.2,8.8,9.4"/>
</g>
<g id="XMLID_599_" class="st0">
	<path id="XMLID_565_" class="st15" d="M21,32.6v9.1c0,5.9,4.8,10.7,10.7,10.7l0,0c5.9,0,10.7-4.8,10.7-10.7v-8.5
		c-1.3-7.5-8-9.7-11.4-9.6C28,23.7,22.1,26.8,21,32.6z"/>
	<path id="XMLID_564_" class="st3" d="M42.4,35.9c0,0-5.5-6.5-14.4-7.4l-7,7.7c0,0-1.8-11,10.3-12.6C31.3,23.6,42.6,23.2,42.4,35.9z
		"/>
	<path id="XMLID_563_" class="st2" d="M21,36.2c0,0,4.4-2.6,7-7.7c0,0,10.8,1.9,14.4,7.4"/>
	<path id="XMLID_562_" class="st2" d="M42.4,34.3c0-5.9-4.8-10.7-10.7-10.7l0,0c-5.9,0-10.7,4.8-10.7,10.7v7.4
		c0,5.9,4.8,10.7,10.7,10.7l0,0c5.9,0,10.7-4.8,10.7-10.7V34.3z"/>
	<g id="XMLID_419_" class="st5">
		<line id="XMLID_421_" class="st16" x1="29" y1="18.7" x2="32" y2="18.7"/>
		<line id="XMLID_420_" class="st16" x1="30.5" y1="20.2" x2="30.5" y2="17.2"/>
	</g>
	<g id="XMLID_595_" class="st5">
		<line id="XMLID_598_" class="st16" x1="18.6" y1="13.7" x2="22.8" y2="13.7"/>
		<line id="XMLID_597_" class="st16" x1="20.7" y1="15.8" x2="20.7" y2="11.6"/>
	</g>
	<g id="XMLID_585_" class="st5">
		<line id="XMLID_588_" class="st16" x1="10.8" y1="34.2" x2="15.5" y2="34.2"/>
		<line id="XMLID_586_" class="st16" x1="13.2" y1="36.5" x2="13.2" y2="31.8"/>
	</g>
	<g id="XMLID_590_" class="st5">
		<line id="XMLID_594_" class="st16" x1="46.3" y1="20.2" x2="51" y2="20.2"/>
		<line id="XMLID_593_" class="st16" x1="48.6" y1="22.5" x2="48.6" y2="17.8"/>
	</g>
	<path id="XMLID_556_" class="st1" d="M22.6,45.6L22.6,45.6c-1.5,0-2.7-1.2-2.7-2.7v-5.6c0-1.5,1.2-2.7,2.7-2.7l0,0V45.6z"/>
	<path id="XMLID_560_" class="st42" d="M21.2,35v10.2c0.4,0.3,0.9,0.4,1.4,0.4v-11C22.1,34.6,21.6,34.7,21.2,35z"/>
	<path id="XMLID_555_" class="st1" d="M41.1,45.6L41.1,45.6c1.5,0,2.7-1.2,2.7-2.7v-5.6c0-1.5-1.2-2.7-2.7-2.7l0,0V45.6z"/>
	<path id="XMLID_561_" class="st42" d="M42.4,34.9c-0.4-0.2-0.8-0.3-1.3-0.3v11c0.5,0,0.9-0.1,1.3-0.3V34.9z"/>
	<path id="XMLID_552_" class="st2" d="M22.6,45.6L22.6,45.6c-1.5,0-2.7-1.2-2.7-2.7v-5.6c0-1.5,1.2-2.7,2.7-2.7l0,0V45.6z"/>
	<path id="XMLID_554_" class="st2" d="M41.1,45.6L41.1,45.6c1.5,0,2.7-1.2,2.7-2.7v-5.6c0-1.5-1.2-2.7-2.7-2.7l0,0V45.6z"/>
	<path id="XMLID_553_" class="st2" d="M19.1,41v-7.3c0-6.4,5.2-11.6,11.6-11.6h2.5c6.4,0,11.6,5.2,11.6,11.6V41"/>
	<path id="XMLID_559_" class="st3" d="M41.9,21c0,0-7.6,7.5-14.2,4.2c0,0-1.6,6.4,7.5,5.8C35.1,31,44.4,30.7,41.9,21z"/>
	<path id="XMLID_558_" class="st10" d="M27.6,27.4c0.4,1.8,1.9,4,7.5,3.6c0,0,9.3-0.3,6.8-10c0,0-2.7,2.7-6.3,4.2"/>
	<path id="XMLID_569_" class="st2" d="M37.7,45.5c-1.4,1.4-3.2,2.2-5.3,2.2c-2.1,0-3.9-0.8-5.3-2.2c-0.6-0.6-1.1-1.3-1.5-2.1"/>
	<g id="XMLID_566_" class="st5">
		<path id="XMLID_568_" class="st16" d="M30,36.6c0,0.5-0.2,1-0.5,1.3c-0.3,0.3-0.8,0.5-1.3,0.5c-0.5,0-1-0.2-1.3-0.5
			c-0.3-0.3-0.5-0.8-0.5-1.3"/>
		<path id="XMLID_567_" class="st16" d="M37.2,36.6c0,0.5-0.2,1-0.5,1.3c-0.3,0.3-0.8,0.5-1.3,0.5s-1-0.2-1.3-0.5
			c-0.3-0.3-0.5-0.8-0.5-1.3"/>
	</g>
	<g id="XMLID_584_" class="st5">
		
			<ellipse id="XMLID_582_" transform="matrix(0.9854 -0.1704 0.1704 0.9854 -5.2821 8.6163)" class="st16" cx="47.6" cy="35.1" rx="1.5" ry="1"/>
		
			<ellipse id="XMLID_581_" transform="matrix(0.9854 -0.1704 0.1704 0.9854 -5.2207 9.3196)" class="st16" cx="51.7" cy="35.1" rx="1.5" ry="1"/>
		<line id="XMLID_580_" class="st16" x1="49" y1="29.7" x2="49" y2="34.9"/>
		<line id="XMLID_579_" class="st16" x1="53.2" y1="29.7" x2="53.2" y2="34.9"/>
		<rect id="XMLID_557_" x="49" y="29.5" class="st16" width="4.1" height="1"/>
	</g>
	<g id="XMLID_583_" class="st5">
		
			<ellipse id="XMLID_589_" transform="matrix(0.9854 -0.1704 0.1704 0.9854 -4.1694 2.9492)" class="st16" cx="15.1" cy="25.8" rx="1.5" ry="1"/>
		<line id="XMLID_587_" class="st16" x1="16.6" y1="20.3" x2="16.6" y2="25.6"/>
	</g>
</g>
</svg>
